M48
;Layer_Color=9474304
;FILE_FORMAT=4:4
METRIC,LZ
;TYPE=PLATED
T1F00S00C0.7000
T2F00S00C0.8000
T3F00S00C0.8300
T4F00S00C0.8500
T5F00S00C1.0000
T6F00S00C1.0200
T7F00S00C1.1000
T8F00S00C3.2004
%
T01
X0020574Y0019812
Y0024712
X0047969Y0022971
Y0020971
T02
X0018943Y0012573
X0021443
X0039894Y0004064
X0041894
X0040894Y003556
X0038894
X0039021Y0041656
X0041021
X002032Y0041497
Y0039497
X0013081Y0039386
Y0041386
X001907Y0031877
X002157
T03
X0026035Y0009906
Y0012446
Y0014986
Y0017526
Y0020066
Y0022606
Y0025146
X0033909
Y0022606
Y0020066
Y0017526
Y0014986
Y0012446
Y0009906
Y0027686
Y0030226
Y0032766
Y0035306
Y0037846
Y0040386
Y0042926
X0026035
Y0040386
Y0037846
Y0035306
Y0032766
Y0030226
Y0027686
T04
X0014025Y0008382
X0038227Y0007819
Y0016819
X0005025Y0008382
X0004517Y003048
Y0034671
X0013517
Y003048
T05
X0050673Y0009655
Y0011935
X0007203Y0039295
X0002703
Y0045795
X0007203
X0049406Y0032131
X0051686
T06
X0013462Y0013716
Y0016256
Y0018796
Y0021336
Y0023876
X0023876Y000508
X0026416
X0028956
X0031496
X0034036
X000508Y0013843
Y0016383
Y0018923
Y0021463
Y0024003
X0029591Y0047244
X0032131
X0034671
X0037211
X0039751
T07
X0039116Y0022733
Y0025273
Y0027813
T08
X0052705Y0003302
X0003302Y0003683
Y0049657
X0052832
M30
