G04*
G04 #@! TF.GenerationSoftware,Altium Limited,Altium Designer,23.2.1 (34)*
G04*
G04 Layer_Physical_Order=2*
G04 Layer_Color=16711680*
%FSLAX44Y44*%
%MOMM*%
G71*
G04*
G04 #@! TF.SameCoordinates,3E65621F-DDE3-4266-9229-7E2A0E2672EE*
G04*
G04*
G04 #@! TF.FilePolarity,Positive*
G04*
G01*
G75*
%ADD35C,0.6350*%
%ADD36C,1.5000*%
%ADD37R,1.5000X1.5000*%
%ADD38R,1.3000X1.3000*%
%ADD39C,1.3000*%
%ADD40R,1.5000X1.5000*%
%ADD41C,1.7000*%
%ADD42R,1.7000X1.7000*%
%ADD43C,3.4290*%
%ADD44C,1.3500*%
%ADD45R,1.3500X1.3500*%
%ADD46R,1.3000X1.3000*%
%ADD47R,1.3500X1.3500*%
%ADD48R,1.5500X1.5500*%
%ADD49C,1.5500*%
%ADD50R,1.5500X1.5500*%
%ADD51C,1.2500*%
%ADD52R,1.2500X1.2500*%
%ADD53R,1.2000X1.2000*%
%ADD54C,1.2000*%
G36*
X559301Y2039D02*
X2039D01*
Y527551D01*
X559301D01*
Y2039D01*
D02*
G37*
%LPC*%
G36*
X528955Y515012D02*
Y497205D01*
X546762D01*
X546469Y500180D01*
X545416Y503651D01*
X543706Y506850D01*
X541404Y509654D01*
X538600Y511956D01*
X535401Y513666D01*
X531930Y514719D01*
X528955Y515012D01*
D02*
G37*
G36*
X527685D02*
X524710Y514719D01*
X521239Y513666D01*
X518040Y511956D01*
X515236Y509654D01*
X512934Y506850D01*
X511224Y503651D01*
X510171Y500180D01*
X509878Y497205D01*
X527685D01*
Y515012D01*
D02*
G37*
G36*
X33655D02*
Y497205D01*
X51462D01*
X51169Y500180D01*
X50116Y503651D01*
X48406Y506850D01*
X46104Y509654D01*
X43300Y511956D01*
X40101Y513666D01*
X36630Y514719D01*
X33655Y515012D01*
D02*
G37*
G36*
X32385D02*
X29410Y514719D01*
X25939Y513666D01*
X22740Y511956D01*
X19936Y509654D01*
X17634Y506850D01*
X15924Y503651D01*
X14871Y500180D01*
X14578Y497205D01*
X32385D01*
Y515012D01*
D02*
G37*
G36*
X323850Y502089D02*
X283210D01*
X281453Y501858D01*
X279815Y501180D01*
X278409Y500101D01*
X242298Y463989D01*
X215265D01*
X213508Y463758D01*
X211870Y463079D01*
X210464Y462001D01*
X197213Y448749D01*
X107950D01*
X106193Y448518D01*
X104555Y447840D01*
X103149Y446761D01*
X87909Y431521D01*
X86831Y430115D01*
X86152Y428477D01*
X85921Y426720D01*
Y290830D01*
X86152Y289073D01*
X86831Y287435D01*
X87909Y286029D01*
X98069Y275869D01*
X99475Y274790D01*
X101113Y274112D01*
X102870Y273881D01*
X219710D01*
X221467Y274112D01*
X223105Y274790D01*
X224511Y275869D01*
X244112Y295471D01*
X253199D01*
X253356Y295266D01*
X255405Y293694D01*
X257790Y292706D01*
X260350Y292369D01*
X262910Y292706D01*
X265295Y293694D01*
X267344Y295266D01*
X268916Y297315D01*
X269904Y299700D01*
X270241Y302260D01*
X269904Y304820D01*
X268916Y307205D01*
X267344Y309254D01*
X265295Y310826D01*
X262910Y311814D01*
X260350Y312151D01*
X257790Y311814D01*
X255405Y310826D01*
X253356Y309254D01*
X253199Y309049D01*
X241300D01*
X239543Y308818D01*
X237905Y308139D01*
X236499Y307061D01*
X216898Y287459D01*
X105682D01*
X99499Y293642D01*
Y423908D01*
X110762Y435171D01*
X200025D01*
X201782Y435402D01*
X203420Y436081D01*
X204826Y437159D01*
X218077Y450411D01*
X245110D01*
X246867Y450642D01*
X248505Y451320D01*
X249911Y452399D01*
X286022Y488511D01*
X321038D01*
X325043Y484506D01*
X324323Y483429D01*
X324262Y483455D01*
X321310Y483844D01*
X318358Y483455D01*
X315608Y482316D01*
X313246Y480504D01*
X311434Y478142D01*
X310295Y475392D01*
X309906Y472440D01*
X310116Y470847D01*
X308389Y469121D01*
X307216Y469607D01*
Y483746D01*
X284604D01*
Y461134D01*
X298743D01*
X299229Y459961D01*
X293649Y454381D01*
X292570Y452975D01*
X291892Y451337D01*
X291661Y449580D01*
Y368572D01*
X260606Y337517D01*
X260350Y337551D01*
X257790Y337214D01*
X255405Y336226D01*
X253356Y334654D01*
X251784Y332605D01*
X250796Y330220D01*
X250459Y327660D01*
X250796Y325100D01*
X251784Y322715D01*
X253356Y320666D01*
X255405Y319095D01*
X257790Y318106D01*
X260350Y317769D01*
X262910Y318106D01*
X265295Y319095D01*
X267344Y320666D01*
X268916Y322715D01*
X269904Y325100D01*
X270241Y327660D01*
X270207Y327916D01*
X303251Y360959D01*
X304329Y362365D01*
X305008Y364003D01*
X305239Y365760D01*
Y446768D01*
X319717Y461246D01*
X321310Y461036D01*
X324262Y461425D01*
X327012Y462564D01*
X329374Y464376D01*
X331186Y466738D01*
X332325Y469488D01*
X332714Y472440D01*
X332325Y475392D01*
X332299Y475453D01*
X333376Y476173D01*
X335516Y474033D01*
X335306Y472440D01*
X335695Y469488D01*
X336834Y466738D01*
X338647Y464376D01*
X341008Y462564D01*
X343759Y461425D01*
X346710Y461036D01*
X349661Y461425D01*
X352412Y462564D01*
X354773Y464376D01*
X356586Y466738D01*
X357725Y469488D01*
X358114Y472440D01*
X357725Y475392D01*
X356586Y478142D01*
X354773Y480504D01*
X352412Y482316D01*
X349661Y483455D01*
X346710Y483844D01*
X345117Y483634D01*
X328651Y500101D01*
X327245Y501180D01*
X325607Y501858D01*
X324790Y501965D01*
X323850Y502089D01*
D02*
G37*
G36*
X546762Y495935D02*
X528955D01*
Y478128D01*
X531930Y478421D01*
X535401Y479474D01*
X538600Y481184D01*
X541404Y483486D01*
X543706Y486290D01*
X545416Y489489D01*
X546469Y492960D01*
X546762Y495935D01*
D02*
G37*
G36*
X527685D02*
X509878D01*
X510171Y492960D01*
X511224Y489489D01*
X512934Y486290D01*
X515236Y483486D01*
X518040Y481184D01*
X521239Y479474D01*
X524710Y478421D01*
X527685Y478128D01*
Y495935D01*
D02*
G37*
G36*
X51462D02*
X33655D01*
Y478128D01*
X36630Y478421D01*
X40101Y479474D01*
X43300Y481184D01*
X46104Y483486D01*
X48406Y486290D01*
X50116Y489489D01*
X51169Y492960D01*
X51462Y495935D01*
D02*
G37*
G36*
X32385D02*
X14578D01*
X14871Y492960D01*
X15924Y489489D01*
X17634Y486290D01*
X19936Y483486D01*
X22740Y481184D01*
X25939Y479474D01*
X29410Y478421D01*
X32385Y478128D01*
Y495935D01*
D02*
G37*
G36*
X372745Y481454D02*
Y473075D01*
X381124D01*
X380898Y474795D01*
X379989Y476989D01*
X378543Y478873D01*
X376659Y480319D01*
X374465Y481228D01*
X372745Y481454D01*
D02*
G37*
G36*
X371475D02*
X369755Y481228D01*
X367561Y480319D01*
X365677Y478873D01*
X364231Y476989D01*
X363322Y474795D01*
X363096Y473075D01*
X371475D01*
Y481454D01*
D02*
G37*
G36*
X381124Y471805D02*
X372745D01*
Y463426D01*
X374465Y463652D01*
X376659Y464561D01*
X378543Y466007D01*
X379989Y467891D01*
X380898Y470085D01*
X381124Y471805D01*
D02*
G37*
G36*
X371475D02*
X363096D01*
X363322Y470085D01*
X364231Y467891D01*
X365677Y466007D01*
X367561Y464561D01*
X369755Y463652D01*
X371475Y463426D01*
Y471805D01*
D02*
G37*
G36*
X397510Y483844D02*
X394558Y483455D01*
X391808Y482316D01*
X389446Y480504D01*
X387634Y478142D01*
X386495Y475392D01*
X386106Y472440D01*
X386495Y469488D01*
X387634Y466738D01*
X389446Y464376D01*
X391808Y462564D01*
X394558Y461425D01*
X397510Y461036D01*
X400462Y461425D01*
X403212Y462564D01*
X405574Y464376D01*
X407386Y466738D01*
X408525Y469488D01*
X408914Y472440D01*
X408525Y475392D01*
X407386Y478142D01*
X405574Y480504D01*
X403212Y482316D01*
X400462Y483455D01*
X397510Y483844D01*
D02*
G37*
G36*
X27665Y466712D02*
Y458585D01*
X35792D01*
X35574Y460239D01*
X34691Y462373D01*
X33285Y464205D01*
X31453Y465610D01*
X29320Y466494D01*
X27665Y466712D01*
D02*
G37*
G36*
X26395D02*
X24741Y466494D01*
X22607Y465610D01*
X20775Y464205D01*
X19370Y462373D01*
X18486Y460239D01*
X18268Y458585D01*
X26395D01*
Y466712D01*
D02*
G37*
G36*
X35792Y457315D02*
X27665D01*
Y449188D01*
X29320Y449406D01*
X31453Y450289D01*
X33285Y451695D01*
X34691Y453527D01*
X35574Y455660D01*
X35792Y457315D01*
D02*
G37*
G36*
X26395D02*
X18268D01*
X18486Y455660D01*
X19370Y453527D01*
X20775Y451695D01*
X22607Y450289D01*
X24741Y449406D01*
X26395Y449188D01*
Y457315D01*
D02*
G37*
G36*
X72030Y469101D02*
X69144Y468721D01*
X66454Y467607D01*
X64145Y465835D01*
X62372Y463526D01*
X61258Y460836D01*
X60878Y457950D01*
X61258Y455064D01*
X62372Y452374D01*
X64145Y450065D01*
X66454Y448292D01*
X69144Y447178D01*
X72030Y446798D01*
X74916Y447178D01*
X77606Y448292D01*
X79915Y450065D01*
X81687Y452374D01*
X82801Y455064D01*
X83181Y457950D01*
X82801Y460836D01*
X81687Y463526D01*
X79915Y465835D01*
X77606Y467607D01*
X74916Y468721D01*
X72030Y469101D01*
D02*
G37*
G36*
X270156Y439066D02*
X250544D01*
Y419454D01*
X270156D01*
Y439066D01*
D02*
G37*
G36*
X339090Y439151D02*
X336530Y438814D01*
X334145Y437826D01*
X332096Y436254D01*
X330524Y434205D01*
X329536Y431820D01*
X329199Y429260D01*
X329536Y426700D01*
X330524Y424315D01*
X332096Y422266D01*
X334145Y420695D01*
X336530Y419706D01*
X339090Y419369D01*
X341650Y419706D01*
X344035Y420695D01*
X346084Y422266D01*
X347655Y424315D01*
X348644Y426700D01*
X348981Y429260D01*
X348644Y431820D01*
X347655Y434205D01*
X346084Y436254D01*
X344035Y437826D01*
X341650Y438814D01*
X339090Y439151D01*
D02*
G37*
G36*
X397980Y424330D02*
X390845D01*
Y417195D01*
X397980D01*
Y424330D01*
D02*
G37*
G36*
X389575D02*
X382440D01*
Y417195D01*
X389575D01*
Y424330D01*
D02*
G37*
G36*
X138580Y421630D02*
X131445D01*
Y414495D01*
X138580D01*
Y421630D01*
D02*
G37*
G36*
X130175D02*
X123040D01*
Y414495D01*
X130175D01*
Y421630D01*
D02*
G37*
G36*
X397980Y415925D02*
X390845D01*
Y408790D01*
X397980D01*
Y415925D01*
D02*
G37*
G36*
X389575D02*
X382440D01*
Y408790D01*
X389575D01*
Y415925D01*
D02*
G37*
G36*
X410210Y426703D02*
X407585Y426357D01*
X405139Y425344D01*
X403038Y423732D01*
X401426Y421631D01*
X400413Y419185D01*
X400067Y416560D01*
X400413Y413935D01*
X401426Y411489D01*
X403038Y409388D01*
X405139Y407776D01*
X407585Y406763D01*
X410210Y406417D01*
X412835Y406763D01*
X415281Y407776D01*
X417382Y409388D01*
X418994Y411489D01*
X420007Y413935D01*
X420353Y416560D01*
X420007Y419185D01*
X418994Y421631D01*
X417382Y423732D01*
X415281Y425344D01*
X412835Y426357D01*
X410210Y426703D01*
D02*
G37*
G36*
X138580Y413225D02*
X131445D01*
Y406090D01*
X138580D01*
Y413225D01*
D02*
G37*
G36*
X130175D02*
X123040D01*
Y406090D01*
X130175D01*
Y413225D01*
D02*
G37*
G36*
X213256Y425026D02*
X193144D01*
Y404914D01*
X213256D01*
Y425026D01*
D02*
G37*
G36*
X203835Y402724D02*
Y395605D01*
X210954D01*
X210770Y396998D01*
X209987Y398889D01*
X208742Y400512D01*
X207118Y401757D01*
X205228Y402540D01*
X203835Y402724D01*
D02*
G37*
G36*
X202565D02*
X201172Y402540D01*
X199282Y401757D01*
X197658Y400512D01*
X196413Y398889D01*
X195630Y396998D01*
X195446Y395605D01*
X202565D01*
Y402724D01*
D02*
G37*
G36*
X339090Y413751D02*
X336530Y413414D01*
X334145Y412425D01*
X332096Y410854D01*
X330524Y408805D01*
X329536Y406420D01*
X329199Y403860D01*
X329536Y401300D01*
X330524Y398915D01*
X332096Y396866D01*
X334145Y395294D01*
X336530Y394306D01*
X339090Y393969D01*
X341650Y394306D01*
X344035Y395294D01*
X346084Y396866D01*
X347655Y398915D01*
X348644Y401300D01*
X348981Y403860D01*
X348644Y406420D01*
X347655Y408805D01*
X346084Y410854D01*
X344035Y412425D01*
X341650Y413414D01*
X339090Y413751D01*
D02*
G37*
G36*
X260350D02*
X257790Y413414D01*
X255405Y412425D01*
X253356Y410854D01*
X251784Y408805D01*
X250796Y406420D01*
X250459Y403860D01*
X250796Y401300D01*
X251784Y398915D01*
X253356Y396866D01*
X255405Y395294D01*
X257790Y394306D01*
X260350Y393969D01*
X262910Y394306D01*
X265295Y395294D01*
X267344Y396866D01*
X268916Y398915D01*
X269904Y401300D01*
X270241Y403860D01*
X269904Y406420D01*
X268916Y408805D01*
X267344Y410854D01*
X265295Y412425D01*
X262910Y413414D01*
X260350Y413751D01*
D02*
G37*
G36*
X210954Y394335D02*
X203835D01*
Y387216D01*
X205228Y387400D01*
X207118Y388183D01*
X208742Y389428D01*
X209987Y391051D01*
X210770Y392942D01*
X210954Y394335D01*
D02*
G37*
G36*
X202565D02*
X195446D01*
X195630Y392942D01*
X196413Y391051D01*
X197658Y389428D01*
X199282Y388183D01*
X201172Y387400D01*
X202565Y387216D01*
Y394335D01*
D02*
G37*
G36*
X130810Y404003D02*
X128185Y403657D01*
X125739Y402644D01*
X123638Y401032D01*
X122026Y398931D01*
X121013Y396485D01*
X120667Y393860D01*
X121013Y391235D01*
X122026Y388789D01*
X123638Y386688D01*
X125739Y385076D01*
X128185Y384063D01*
X130810Y383717D01*
X133435Y384063D01*
X135881Y385076D01*
X137982Y386688D01*
X139594Y388789D01*
X140607Y391235D01*
X140953Y393860D01*
X140607Y396485D01*
X139594Y398931D01*
X137982Y401032D01*
X135881Y402644D01*
X133435Y403657D01*
X130810Y404003D01*
D02*
G37*
G36*
X38086Y404006D02*
X15974D01*
Y381894D01*
X38086D01*
Y404006D01*
D02*
G37*
G36*
X72030Y404102D02*
X69144Y403722D01*
X66454Y402608D01*
X64145Y400835D01*
X62372Y398526D01*
X61258Y395836D01*
X60878Y392950D01*
X61258Y390064D01*
X62372Y387374D01*
X64145Y385065D01*
X66454Y383293D01*
X69144Y382179D01*
X72030Y381799D01*
X74916Y382179D01*
X77606Y383293D01*
X79915Y385065D01*
X81687Y387374D01*
X82801Y390064D01*
X83181Y392950D01*
X82801Y395836D01*
X81687Y398526D01*
X79915Y400835D01*
X77606Y402608D01*
X74916Y403722D01*
X72030Y404102D01*
D02*
G37*
G36*
X339090Y388351D02*
X336530Y388014D01*
X334145Y387025D01*
X332096Y385454D01*
X330524Y383405D01*
X329536Y381020D01*
X329199Y378460D01*
X329536Y375900D01*
X330524Y373515D01*
X332096Y371466D01*
X334145Y369894D01*
X336530Y368906D01*
X339090Y368569D01*
X341650Y368906D01*
X344035Y369894D01*
X346084Y371466D01*
X347655Y373515D01*
X348644Y375900D01*
X348981Y378460D01*
X348644Y381020D01*
X347655Y383405D01*
X346084Y385454D01*
X344035Y387025D01*
X341650Y388014D01*
X339090Y388351D01*
D02*
G37*
G36*
X260350D02*
X257790Y388014D01*
X255405Y387025D01*
X253356Y385454D01*
X253199Y385249D01*
X208830D01*
X207073Y385018D01*
X205436Y384339D01*
X204030Y383261D01*
X135871Y315103D01*
X135170Y315195D01*
X132480Y314841D01*
X129973Y313802D01*
X127820Y312150D01*
X126168Y309997D01*
X125129Y307490D01*
X124775Y304800D01*
X125129Y302110D01*
X126168Y299603D01*
X127820Y297450D01*
X129973Y295798D01*
X132480Y294759D01*
X135170Y294405D01*
X137861Y294759D01*
X140368Y295798D01*
X142521Y297450D01*
X144172Y299603D01*
X145211Y302110D01*
X145565Y304800D01*
X145473Y305501D01*
X211642Y371671D01*
X253199D01*
X253356Y371466D01*
X255405Y369894D01*
X257790Y368906D01*
X260350Y368569D01*
X262910Y368906D01*
X265295Y369894D01*
X267344Y371466D01*
X268916Y373515D01*
X269904Y375900D01*
X270241Y378460D01*
X269904Y381020D01*
X268916Y383405D01*
X267344Y385454D01*
X265295Y387025D01*
X262910Y388014D01*
X260350Y388351D01*
D02*
G37*
G36*
X389575Y363354D02*
Y356235D01*
X396693D01*
X396510Y357628D01*
X395727Y359519D01*
X394482Y361142D01*
X392859Y362387D01*
X390968Y363170D01*
X389575Y363354D01*
D02*
G37*
G36*
X388305D02*
X386912Y363170D01*
X385022Y362387D01*
X383398Y361142D01*
X382153Y359519D01*
X381370Y357628D01*
X381187Y356235D01*
X388305D01*
Y363354D01*
D02*
G37*
G36*
X396693Y354965D02*
X389575D01*
Y347846D01*
X390968Y348030D01*
X392859Y348813D01*
X394482Y350058D01*
X395727Y351682D01*
X396510Y353572D01*
X396693Y354965D01*
D02*
G37*
G36*
X388305D02*
X381187D01*
X381370Y353572D01*
X382153Y351682D01*
X383398Y350058D01*
X385022Y348813D01*
X386912Y348030D01*
X388305Y347846D01*
Y354965D01*
D02*
G37*
G36*
X418996Y365656D02*
X398884D01*
Y345544D01*
X418996D01*
Y365656D01*
D02*
G37*
G36*
X339090Y362951D02*
X336530Y362614D01*
X334145Y361626D01*
X332096Y360054D01*
X330524Y358005D01*
X329536Y355620D01*
X329199Y353060D01*
X329536Y350500D01*
X330524Y348115D01*
X332096Y346066D01*
X334145Y344495D01*
X336530Y343506D01*
X339090Y343169D01*
X341650Y343506D01*
X344035Y344495D01*
X346084Y346066D01*
X347655Y348115D01*
X348644Y350500D01*
X348981Y353060D01*
X348644Y355620D01*
X347655Y358005D01*
X346084Y360054D01*
X344035Y361626D01*
X341650Y362614D01*
X339090Y362951D01*
D02*
G37*
G36*
X260350D02*
X257790Y362614D01*
X255405Y361626D01*
X253356Y360054D01*
X251784Y358005D01*
X250796Y355620D01*
X250459Y353060D01*
X250796Y350500D01*
X251784Y348115D01*
X253356Y346066D01*
X255405Y344495D01*
X257790Y343506D01*
X260350Y343169D01*
X262910Y343506D01*
X265295Y344495D01*
X267344Y346066D01*
X268916Y348115D01*
X269904Y350500D01*
X270241Y353060D01*
X269904Y355620D01*
X268916Y358005D01*
X267344Y360054D01*
X265295Y361626D01*
X262910Y362614D01*
X260350Y362951D01*
D02*
G37*
G36*
X55476Y357016D02*
X34864D01*
Y336404D01*
X55476D01*
Y357016D01*
D02*
G37*
G36*
X135170Y357105D02*
X132480Y356751D01*
X129973Y355712D01*
X127820Y354060D01*
X126168Y351907D01*
X125129Y349400D01*
X124775Y346710D01*
X125129Y344020D01*
X126168Y341513D01*
X127820Y339360D01*
X129973Y337708D01*
X132480Y336669D01*
X135170Y336315D01*
X137861Y336669D01*
X140368Y337708D01*
X142521Y339360D01*
X144172Y341513D01*
X145211Y344020D01*
X145565Y346710D01*
X145211Y349400D01*
X144172Y351907D01*
X142521Y354060D01*
X140368Y355712D01*
X137861Y356751D01*
X135170Y357105D01*
D02*
G37*
G36*
X494695Y330072D02*
Y321945D01*
X502822D01*
X502604Y323599D01*
X501721Y325733D01*
X500315Y327565D01*
X498483Y328971D01*
X496349Y329854D01*
X494695Y330072D01*
D02*
G37*
G36*
X493425D02*
X491771Y329854D01*
X489637Y328971D01*
X487805Y327565D01*
X486399Y325733D01*
X485516Y323599D01*
X485298Y321945D01*
X493425D01*
Y330072D01*
D02*
G37*
G36*
X216335Y326523D02*
Y319405D01*
X223454D01*
X223270Y320798D01*
X222487Y322688D01*
X221242Y324312D01*
X219618Y325557D01*
X217728Y326340D01*
X216335Y326523D01*
D02*
G37*
G36*
X215065Y326524D02*
X213672Y326340D01*
X211782Y325557D01*
X210158Y324312D01*
X208913Y322688D01*
X208130Y320798D01*
X207946Y319405D01*
X215065D01*
Y326524D01*
D02*
G37*
G36*
X339090Y337551D02*
X336530Y337214D01*
X334145Y336226D01*
X332096Y334654D01*
X330524Y332605D01*
X329536Y330220D01*
X329199Y327660D01*
X329536Y325100D01*
X330524Y322715D01*
X332096Y320666D01*
X334145Y319095D01*
X336530Y318106D01*
X339090Y317769D01*
X341650Y318106D01*
X344035Y319095D01*
X346084Y320666D01*
X347655Y322715D01*
X348644Y325100D01*
X348981Y327660D01*
X348644Y330220D01*
X347655Y332605D01*
X346084Y334654D01*
X344035Y336226D01*
X341650Y337214D01*
X339090Y337551D01*
D02*
G37*
G36*
X502822Y320675D02*
X494695D01*
Y312548D01*
X496349Y312766D01*
X498483Y313649D01*
X500315Y315055D01*
X501721Y316887D01*
X502604Y319021D01*
X502822Y320675D01*
D02*
G37*
G36*
X493425D02*
X485298D01*
X485516Y319021D01*
X486399Y316887D01*
X487805Y315055D01*
X489637Y313649D01*
X491771Y312766D01*
X493425Y312548D01*
Y320675D01*
D02*
G37*
G36*
X223454Y318135D02*
X216335D01*
Y311017D01*
X217728Y311200D01*
X219618Y311983D01*
X221242Y313228D01*
X222487Y314851D01*
X223270Y316742D01*
X223454Y318135D01*
D02*
G37*
G36*
X215065D02*
X207946D01*
X208130Y316742D01*
X208913Y314851D01*
X210158Y313228D01*
X211782Y311983D01*
X213672Y311200D01*
X215065Y311017D01*
Y318135D01*
D02*
G37*
G36*
X527916Y332366D02*
X505804D01*
Y310254D01*
X527916D01*
Y332366D01*
D02*
G37*
G36*
X200756Y328826D02*
X180644D01*
Y308714D01*
X200756D01*
Y328826D01*
D02*
G37*
G36*
X55476Y315106D02*
X34864D01*
Y294494D01*
X55476D01*
Y315106D01*
D02*
G37*
G36*
X339090Y312151D02*
X336530Y311814D01*
X334145Y310826D01*
X332096Y309254D01*
X330524Y307205D01*
X329536Y304820D01*
X329199Y302260D01*
X329536Y299700D01*
X330524Y297315D01*
X332096Y295266D01*
X334145Y293694D01*
X336530Y292706D01*
X339090Y292369D01*
X341650Y292706D01*
X344035Y293694D01*
X346084Y295266D01*
X347655Y297315D01*
X348644Y299700D01*
X348981Y302260D01*
X348644Y304820D01*
X347655Y307205D01*
X346084Y309254D01*
X344035Y310826D01*
X341650Y311814D01*
X339090Y312151D01*
D02*
G37*
G36*
X339725Y284361D02*
Y277495D01*
X346591D01*
X346417Y278823D01*
X345659Y280652D01*
X344453Y282223D01*
X342882Y283429D01*
X341053Y284186D01*
X339725Y284361D01*
D02*
G37*
G36*
X338455D02*
X337127Y284186D01*
X335298Y283429D01*
X333727Y282223D01*
X332521Y280652D01*
X331763Y278823D01*
X331589Y277495D01*
X338455D01*
Y284361D01*
D02*
G37*
G36*
X346591Y276225D02*
X339725D01*
Y269359D01*
X341053Y269534D01*
X342882Y270291D01*
X344453Y271497D01*
X345659Y273068D01*
X346417Y274897D01*
X346591Y276225D01*
D02*
G37*
G36*
X338455D02*
X331589D01*
X331763Y274897D01*
X332521Y273068D01*
X333727Y271497D01*
X335298Y270291D01*
X337127Y269534D01*
X338455Y269359D01*
Y276225D01*
D02*
G37*
G36*
X260350Y286751D02*
X257790Y286414D01*
X255405Y285425D01*
X253356Y283854D01*
X251784Y281805D01*
X250796Y279420D01*
X250459Y276860D01*
X250796Y274300D01*
X251784Y271915D01*
X253356Y269866D01*
X255405Y268295D01*
X257790Y267306D01*
X260350Y266969D01*
X262910Y267306D01*
X265295Y268295D01*
X267344Y269866D01*
X268916Y271915D01*
X269904Y274300D01*
X270241Y276860D01*
X269904Y279420D01*
X268916Y281805D01*
X267344Y283854D01*
X265295Y285425D01*
X262910Y286414D01*
X260350Y286751D01*
D02*
G37*
G36*
X403216Y290186D02*
X379104D01*
Y266074D01*
X403216D01*
Y290186D01*
D02*
G37*
G36*
X391795Y262501D02*
Y253365D01*
X400931D01*
X400678Y255280D01*
X399694Y257657D01*
X398128Y259698D01*
X396087Y261264D01*
X393711Y262248D01*
X391795Y262501D01*
D02*
G37*
G36*
X390525D02*
X388610Y262248D01*
X386233Y261264D01*
X384192Y259698D01*
X382626Y257657D01*
X381642Y255280D01*
X381389Y253365D01*
X390525D01*
Y262501D01*
D02*
G37*
G36*
X260985Y258961D02*
Y252095D01*
X267851D01*
X267677Y253423D01*
X266919Y255252D01*
X265713Y256823D01*
X264142Y258029D01*
X262313Y258787D01*
X260985Y258961D01*
D02*
G37*
G36*
X259715D02*
X258387Y258787D01*
X256558Y258029D01*
X254987Y256823D01*
X253781Y255252D01*
X253023Y253423D01*
X252849Y252095D01*
X259715D01*
Y258961D01*
D02*
G37*
G36*
X267851Y250825D02*
X260985D01*
Y243959D01*
X262313Y244133D01*
X264142Y244891D01*
X265713Y246097D01*
X266919Y247668D01*
X267677Y249497D01*
X267851Y250825D01*
D02*
G37*
G36*
X259715D02*
X252849D01*
X253023Y249497D01*
X253781Y247668D01*
X254987Y246097D01*
X256558Y244891D01*
X258387Y244133D01*
X259715Y243959D01*
Y250825D01*
D02*
G37*
G36*
X400931Y252095D02*
X391795D01*
Y242959D01*
X393711Y243211D01*
X396087Y244196D01*
X398128Y245762D01*
X399694Y247803D01*
X400678Y250180D01*
X400931Y252095D01*
D02*
G37*
G36*
X390525D02*
X381389D01*
X381642Y250180D01*
X382626Y247803D01*
X384192Y245762D01*
X386233Y244196D01*
X388610Y243211D01*
X390525Y242959D01*
Y252095D01*
D02*
G37*
G36*
X339090Y261351D02*
X336530Y261014D01*
X334145Y260026D01*
X332096Y258454D01*
X330524Y256405D01*
X329536Y254020D01*
X329199Y251460D01*
X329536Y248900D01*
X330524Y246515D01*
X332096Y244466D01*
X334145Y242894D01*
X336530Y241906D01*
X339090Y241569D01*
X341650Y241906D01*
X344035Y242894D01*
X346084Y244466D01*
X347655Y246515D01*
X348644Y248900D01*
X348981Y251460D01*
X348644Y254020D01*
X347655Y256405D01*
X346084Y258454D01*
X344035Y260026D01*
X341650Y261014D01*
X339090Y261351D01*
D02*
G37*
G36*
X205740Y256759D02*
X203245Y256430D01*
X200921Y255467D01*
X198925Y253936D01*
X197393Y251939D01*
X196430Y249615D01*
X196102Y247120D01*
X196430Y244625D01*
X197393Y242301D01*
X198925Y240305D01*
X200921Y238773D01*
X203245Y237810D01*
X205740Y237482D01*
X208235Y237810D01*
X210559Y238773D01*
X212555Y240305D01*
X214087Y242301D01*
X215050Y244625D01*
X215378Y247120D01*
X215050Y249615D01*
X214087Y251939D01*
X212555Y253936D01*
X210559Y255467D01*
X208235Y256430D01*
X205740Y256759D01*
D02*
G37*
G36*
X62106Y251336D02*
X39494D01*
Y228724D01*
X62106D01*
Y251336D01*
D02*
G37*
G36*
X145926Y250066D02*
X123314D01*
Y227454D01*
X145926D01*
Y250066D01*
D02*
G37*
G36*
X479690Y239348D02*
X477196Y239020D01*
X474871Y238057D01*
X472875Y236525D01*
X471343Y234529D01*
X470380Y232205D01*
X470052Y229710D01*
X470380Y227215D01*
X471343Y224891D01*
X472875Y222895D01*
X474871Y221363D01*
X477196Y220400D01*
X479690Y220072D01*
X482185Y220400D01*
X484509Y221363D01*
X486506Y222895D01*
X488037Y224891D01*
X489000Y227215D01*
X489329Y229710D01*
X489000Y232205D01*
X488037Y234529D01*
X486506Y236525D01*
X484509Y238057D01*
X482185Y239020D01*
X479690Y239348D01*
D02*
G37*
G36*
X339090Y235951D02*
X336530Y235614D01*
X334145Y234625D01*
X332096Y233054D01*
X330524Y231005D01*
X329536Y228620D01*
X329199Y226060D01*
X329536Y223500D01*
X330524Y221115D01*
X332096Y219066D01*
X334145Y217495D01*
X336530Y216506D01*
X339090Y216169D01*
X341650Y216506D01*
X344035Y217495D01*
X346084Y219066D01*
X347655Y221115D01*
X348644Y223500D01*
X348981Y226060D01*
X348644Y228620D01*
X347655Y231005D01*
X346084Y233054D01*
X344035Y234625D01*
X341650Y235614D01*
X339090Y235951D01*
D02*
G37*
G36*
X260350D02*
X257790Y235614D01*
X255405Y234625D01*
X253356Y233054D01*
X251784Y231005D01*
X250796Y228620D01*
X250459Y226060D01*
X250796Y223500D01*
X251784Y221115D01*
X253356Y219066D01*
X255405Y217495D01*
X257790Y216506D01*
X260350Y216169D01*
X262910Y216506D01*
X265295Y217495D01*
X267344Y219066D01*
X268916Y221115D01*
X269904Y223500D01*
X270241Y226060D01*
X269904Y228620D01*
X268916Y231005D01*
X267344Y233054D01*
X265295Y234625D01*
X262910Y235614D01*
X260350Y235951D01*
D02*
G37*
G36*
X51435Y223644D02*
Y215265D01*
X59814D01*
X59588Y216985D01*
X58679Y219179D01*
X57233Y221063D01*
X55349Y222509D01*
X53155Y223418D01*
X51435Y223644D01*
D02*
G37*
G36*
X50165D02*
X48445Y223418D01*
X46251Y222509D01*
X44367Y221063D01*
X42921Y219179D01*
X42012Y216985D01*
X41786Y215265D01*
X50165D01*
Y223644D01*
D02*
G37*
G36*
X391160Y239490D02*
X388013Y239076D01*
X385080Y237861D01*
X382562Y235928D01*
X380629Y233410D01*
X379414Y230477D01*
X379000Y227330D01*
X379414Y224183D01*
X380629Y221250D01*
X382562Y218732D01*
X385080Y216799D01*
X388013Y215584D01*
X391160Y215170D01*
X394307Y215584D01*
X397240Y216799D01*
X399758Y218732D01*
X401691Y221250D01*
X402906Y224183D01*
X403320Y227330D01*
X402906Y230477D01*
X401691Y233410D01*
X399758Y235928D01*
X397240Y237861D01*
X394307Y239076D01*
X391160Y239490D01*
D02*
G37*
G36*
X486960Y216980D02*
X480325D01*
Y210345D01*
X486960D01*
Y216980D01*
D02*
G37*
G36*
X479055D02*
X472420D01*
Y210345D01*
X479055D01*
Y216980D01*
D02*
G37*
G36*
X59814Y213995D02*
X51435D01*
Y205616D01*
X53155Y205842D01*
X55349Y206751D01*
X57233Y208197D01*
X58679Y210081D01*
X59588Y212275D01*
X59814Y213995D01*
D02*
G37*
G36*
X50165D02*
X41786D01*
X42012Y212275D01*
X42921Y210081D01*
X44367Y208197D01*
X46251Y206751D01*
X48445Y205842D01*
X50165Y205616D01*
Y213995D01*
D02*
G37*
G36*
X486960Y209075D02*
X480325D01*
Y202440D01*
X486960D01*
Y209075D01*
D02*
G37*
G36*
X479055D02*
X472420D01*
Y202440D01*
X479055D01*
Y209075D01*
D02*
G37*
G36*
X134620Y224764D02*
X131669Y224375D01*
X128918Y223236D01*
X126557Y221423D01*
X124744Y219062D01*
X123605Y216311D01*
X123216Y213360D01*
X123605Y210408D01*
X124744Y207658D01*
X126557Y205296D01*
X128918Y203484D01*
X131669Y202345D01*
X134620Y201956D01*
X137571Y202345D01*
X140322Y203484D01*
X142683Y205296D01*
X144496Y207658D01*
X145635Y210408D01*
X146024Y213360D01*
X145635Y216311D01*
X144496Y219062D01*
X142683Y221423D01*
X140322Y223236D01*
X137571Y224375D01*
X134620Y224764D01*
D02*
G37*
G36*
X339090Y210551D02*
X336530Y210214D01*
X334145Y209226D01*
X332096Y207654D01*
X330524Y205605D01*
X329536Y203220D01*
X329199Y200660D01*
X329536Y198100D01*
X330524Y195715D01*
X332096Y193666D01*
X334145Y192094D01*
X336530Y191106D01*
X339090Y190769D01*
X341650Y191106D01*
X344035Y192094D01*
X346084Y193666D01*
X347655Y195715D01*
X348644Y198100D01*
X348981Y200660D01*
X348644Y203220D01*
X347655Y205605D01*
X346084Y207654D01*
X344035Y209226D01*
X341650Y210214D01*
X339090Y210551D01*
D02*
G37*
G36*
X260350D02*
X257790Y210214D01*
X255405Y209226D01*
X253356Y207654D01*
X251784Y205605D01*
X250796Y203220D01*
X250459Y200660D01*
X250796Y198100D01*
X251784Y195715D01*
X253356Y193666D01*
X255405Y192094D01*
X257790Y191106D01*
X260350Y190769D01*
X262910Y191106D01*
X265295Y192094D01*
X267344Y193666D01*
X268916Y195715D01*
X269904Y198100D01*
X270241Y200660D01*
X269904Y203220D01*
X268916Y205605D01*
X267344Y207654D01*
X265295Y209226D01*
X262910Y210214D01*
X260350Y210551D01*
D02*
G37*
G36*
X215296Y207676D02*
X196184D01*
Y188564D01*
X215296D01*
Y207676D01*
D02*
G37*
G36*
X50800Y200634D02*
X47849Y200245D01*
X45098Y199106D01*
X42737Y197293D01*
X40924Y194932D01*
X39785Y192181D01*
X39396Y189230D01*
X39785Y186278D01*
X40924Y183528D01*
X42737Y181166D01*
X45098Y179354D01*
X47849Y178215D01*
X50800Y177826D01*
X53752Y178215D01*
X56502Y179354D01*
X58864Y181166D01*
X60676Y183528D01*
X61815Y186278D01*
X62204Y189230D01*
X61815Y192181D01*
X60676Y194932D01*
X58864Y197293D01*
X56502Y199106D01*
X53752Y200245D01*
X50800Y200634D01*
D02*
G37*
G36*
X339090Y185151D02*
X336530Y184814D01*
X334145Y183825D01*
X332096Y182254D01*
X330524Y180205D01*
X329536Y177820D01*
X329199Y175260D01*
X329536Y172700D01*
X330524Y170315D01*
X332096Y168266D01*
X334145Y166695D01*
X336530Y165706D01*
X339090Y165369D01*
X341650Y165706D01*
X344035Y166695D01*
X346084Y168266D01*
X347655Y170315D01*
X348644Y172700D01*
X348981Y175260D01*
X348644Y177820D01*
X347655Y180205D01*
X346084Y182254D01*
X344035Y183825D01*
X341650Y184814D01*
X339090Y185151D01*
D02*
G37*
G36*
X260350D02*
X257790Y184814D01*
X255405Y183825D01*
X253356Y182254D01*
X251784Y180205D01*
X250796Y177820D01*
X250459Y175260D01*
X250796Y172700D01*
X251784Y170315D01*
X253356Y168266D01*
X255405Y166695D01*
X257790Y165706D01*
X260350Y165369D01*
X262910Y165706D01*
X265295Y166695D01*
X267344Y168266D01*
X268916Y170315D01*
X269904Y172700D01*
X270241Y175260D01*
X269904Y177820D01*
X268916Y180205D01*
X267344Y182254D01*
X265295Y183825D01*
X262910Y184814D01*
X260350Y185151D01*
D02*
G37*
G36*
X135255Y171574D02*
Y163195D01*
X143634D01*
X143408Y164915D01*
X142499Y167109D01*
X141053Y168993D01*
X139169Y170439D01*
X136975Y171348D01*
X135255Y171574D01*
D02*
G37*
G36*
X133985D02*
X132265Y171348D01*
X130071Y170439D01*
X128187Y168993D01*
X126741Y167109D01*
X125832Y164915D01*
X125606Y163195D01*
X133985D01*
Y171574D01*
D02*
G37*
G36*
X392576Y178496D02*
X371964D01*
Y157884D01*
X392576D01*
Y178496D01*
D02*
G37*
G36*
X143634Y161925D02*
X135255D01*
Y153546D01*
X136975Y153772D01*
X139169Y154681D01*
X141053Y156127D01*
X142499Y158011D01*
X143408Y160205D01*
X143634Y161925D01*
D02*
G37*
G36*
X133985D02*
X125606D01*
X125832Y160205D01*
X126741Y158011D01*
X128187Y156127D01*
X130071Y154681D01*
X132265Y153772D01*
X133985Y153546D01*
Y161925D01*
D02*
G37*
G36*
X50800Y175234D02*
X47849Y174845D01*
X45098Y173706D01*
X42737Y171894D01*
X40924Y169532D01*
X39785Y166782D01*
X39396Y163830D01*
X39785Y160879D01*
X40924Y158128D01*
X42737Y155766D01*
X45098Y153954D01*
X47849Y152815D01*
X50800Y152426D01*
X53752Y152815D01*
X56502Y153954D01*
X58864Y155766D01*
X60676Y158128D01*
X61815Y160879D01*
X62204Y163830D01*
X61815Y166782D01*
X60676Y169532D01*
X58864Y171894D01*
X56502Y173706D01*
X53752Y174845D01*
X50800Y175234D01*
D02*
G37*
G36*
X339090Y159751D02*
X336530Y159414D01*
X334145Y158426D01*
X332096Y156854D01*
X330524Y154805D01*
X329536Y152420D01*
X329199Y149860D01*
X329536Y147300D01*
X330524Y144915D01*
X332096Y142866D01*
X334145Y141294D01*
X336530Y140306D01*
X339090Y139969D01*
X341650Y140306D01*
X344035Y141294D01*
X346084Y142866D01*
X347655Y144915D01*
X348644Y147300D01*
X348981Y149860D01*
X348644Y152420D01*
X347655Y154805D01*
X346084Y156854D01*
X344035Y158426D01*
X341650Y159414D01*
X339090Y159751D01*
D02*
G37*
G36*
X260350D02*
X257790Y159414D01*
X255405Y158426D01*
X253356Y156854D01*
X251784Y154805D01*
X250796Y152420D01*
X250459Y149860D01*
X250796Y147300D01*
X251784Y144915D01*
X253356Y142866D01*
X255405Y141294D01*
X257790Y140306D01*
X260350Y139969D01*
X262910Y140306D01*
X265295Y141294D01*
X267344Y142866D01*
X268916Y144915D01*
X269904Y147300D01*
X270241Y149860D01*
X269904Y152420D01*
X268916Y154805D01*
X267344Y156854D01*
X265295Y158426D01*
X262910Y159414D01*
X260350Y159751D01*
D02*
G37*
G36*
X50800Y149834D02*
X47849Y149445D01*
X45098Y148306D01*
X42737Y146494D01*
X40924Y144132D01*
X39785Y141382D01*
X39396Y138430D01*
X39785Y135478D01*
X40924Y132728D01*
X42737Y130366D01*
X45098Y128554D01*
X47849Y127415D01*
X50800Y127026D01*
X53752Y127415D01*
X56502Y128554D01*
X58864Y130366D01*
X60676Y132728D01*
X61815Y135478D01*
X62204Y138430D01*
X61815Y141382D01*
X60676Y144132D01*
X58864Y146494D01*
X56502Y148306D01*
X53752Y149445D01*
X50800Y149834D01*
D02*
G37*
G36*
X215065Y133483D02*
Y126365D01*
X222184D01*
X222000Y127758D01*
X221217Y129649D01*
X219972Y131272D01*
X218349Y132517D01*
X216459Y133300D01*
X215065Y133483D01*
D02*
G37*
G36*
X213795Y133483D02*
X212402Y133300D01*
X210512Y132517D01*
X208889Y131272D01*
X207643Y129649D01*
X206860Y127758D01*
X206677Y126365D01*
X213795D01*
Y133483D01*
D02*
G37*
G36*
X134620Y148564D02*
X131669Y148175D01*
X128918Y147036D01*
X126557Y145224D01*
X124744Y142862D01*
X123605Y140112D01*
X123216Y137160D01*
X123605Y134208D01*
X124744Y131458D01*
X126557Y129096D01*
X128918Y127284D01*
X131669Y126145D01*
X134620Y125756D01*
X137571Y126145D01*
X140322Y127284D01*
X142683Y129096D01*
X144496Y131458D01*
X145635Y134208D01*
X146024Y137160D01*
X145635Y140112D01*
X144496Y142862D01*
X142683Y145224D01*
X140322Y147036D01*
X137571Y148175D01*
X134620Y148564D01*
D02*
G37*
G36*
X507365Y128112D02*
Y119985D01*
X515492D01*
X515274Y121639D01*
X514391Y123773D01*
X512985Y125605D01*
X511153Y127011D01*
X509019Y127894D01*
X507365Y128112D01*
D02*
G37*
G36*
X506095D02*
X504441Y127894D01*
X502307Y127011D01*
X500475Y125605D01*
X499069Y123773D01*
X498186Y121639D01*
X497968Y119985D01*
X506095D01*
Y128112D01*
D02*
G37*
G36*
X222184Y125095D02*
X215065D01*
Y117977D01*
X216459Y118160D01*
X218349Y118943D01*
X219972Y120188D01*
X221217Y121812D01*
X222000Y123702D01*
X222184Y125095D01*
D02*
G37*
G36*
X213795D02*
X206677D01*
X206860Y123702D01*
X207643Y121812D01*
X208889Y120188D01*
X210512Y118943D01*
X212402Y118160D01*
X213795Y117977D01*
Y125095D01*
D02*
G37*
G36*
X199486Y135786D02*
X179374D01*
Y115674D01*
X199486D01*
Y135786D01*
D02*
G37*
G36*
X134620Y199364D02*
X131669Y198975D01*
X128918Y197836D01*
X126557Y196024D01*
X124744Y193662D01*
X123605Y190912D01*
X123216Y187960D01*
X123605Y185009D01*
X124744Y182258D01*
X126557Y179897D01*
X128918Y178084D01*
X131669Y176945D01*
X134620Y176556D01*
X137571Y176945D01*
X140322Y178084D01*
X142683Y179897D01*
X143661Y181171D01*
X163558D01*
X195859Y148869D01*
X197265Y147790D01*
X198903Y147112D01*
X200660Y146881D01*
X228328D01*
X250493Y124716D01*
X250459Y124460D01*
X250796Y121900D01*
X251784Y119515D01*
X253356Y117466D01*
X255405Y115894D01*
X257790Y114906D01*
X260350Y114569D01*
X262910Y114906D01*
X265295Y115894D01*
X267344Y117466D01*
X268916Y119515D01*
X269904Y121900D01*
X270241Y124460D01*
X269904Y127020D01*
X268916Y129405D01*
X267344Y131454D01*
X265295Y133026D01*
X262910Y134014D01*
X260350Y134351D01*
X260094Y134317D01*
X235941Y158471D01*
X234535Y159550D01*
X232897Y160228D01*
X231140Y160459D01*
X203472D01*
X171171Y192761D01*
X169765Y193839D01*
X168127Y194518D01*
X166370Y194749D01*
X143661D01*
X142683Y196024D01*
X140322Y197836D01*
X137571Y198975D01*
X134620Y199364D01*
D02*
G37*
G36*
X515492Y118715D02*
X507365D01*
Y110588D01*
X509019Y110806D01*
X511153Y111690D01*
X512985Y113095D01*
X514391Y114927D01*
X515274Y117061D01*
X515492Y118715D01*
D02*
G37*
G36*
X506095D02*
X497968D01*
X498186Y117061D01*
X499069Y114927D01*
X500475Y113095D01*
X502307Y111690D01*
X504441Y110806D01*
X506095Y110588D01*
Y118715D01*
D02*
G37*
G36*
X339090Y108951D02*
X336530Y108614D01*
X334145Y107626D01*
X332096Y106054D01*
X330524Y104005D01*
X329536Y101620D01*
X329199Y99060D01*
X329536Y96500D01*
X330524Y94115D01*
X332096Y92066D01*
X334145Y90494D01*
X336530Y89506D01*
X339090Y89169D01*
X341650Y89506D01*
X344035Y90494D01*
X346084Y92066D01*
X347655Y94115D01*
X348644Y96500D01*
X348981Y99060D01*
X348644Y101620D01*
X347655Y104005D01*
X346084Y106054D01*
X344035Y107626D01*
X341650Y108614D01*
X339090Y108951D01*
D02*
G37*
G36*
X260350D02*
X257790Y108614D01*
X255405Y107626D01*
X253356Y106054D01*
X251784Y104005D01*
X250796Y101620D01*
X250459Y99060D01*
X250796Y96500D01*
X251784Y94115D01*
X253356Y92066D01*
X255405Y90494D01*
X257790Y89506D01*
X260350Y89169D01*
X262910Y89506D01*
X265295Y90494D01*
X267344Y92066D01*
X268916Y94115D01*
X269904Y96500D01*
X270241Y99060D01*
X269904Y101620D01*
X268916Y104005D01*
X267344Y106054D01*
X265295Y107626D01*
X262910Y108614D01*
X260350Y108951D01*
D02*
G37*
G36*
X339090Y134351D02*
X336530Y134014D01*
X334145Y133026D01*
X332096Y131454D01*
X330524Y129405D01*
X329536Y127020D01*
X329199Y124460D01*
X329536Y121900D01*
X330524Y119515D01*
X332096Y117466D01*
X334145Y115894D01*
X336530Y114906D01*
X339090Y114569D01*
X341650Y114906D01*
X344035Y115894D01*
X346084Y117466D01*
X346241Y117671D01*
X411208D01*
X433349Y95529D01*
X434755Y94451D01*
X436393Y93772D01*
X438150Y93541D01*
X495674D01*
Y85494D01*
X517786D01*
Y107606D01*
X495674D01*
Y107119D01*
X440962D01*
X418821Y129261D01*
X417415Y130339D01*
X415777Y131018D01*
X414020Y131249D01*
X346241D01*
X346084Y131454D01*
X344035Y133026D01*
X341650Y134014D01*
X339090Y134351D01*
D02*
G37*
G36*
X148270Y91840D02*
X140885D01*
Y84455D01*
X148270D01*
Y91840D01*
D02*
G37*
G36*
X139615D02*
X132230D01*
Y84455D01*
X139615D01*
Y91840D01*
D02*
G37*
G36*
X148270Y83185D02*
X140885D01*
Y75800D01*
X148270D01*
Y83185D01*
D02*
G37*
G36*
X139615D02*
X132230D01*
Y75800D01*
X139615D01*
Y83185D01*
D02*
G37*
G36*
X50250Y94215D02*
X47559Y93861D01*
X45052Y92822D01*
X42899Y91170D01*
X41248Y89017D01*
X40209Y86510D01*
X39855Y83820D01*
X40209Y81130D01*
X41248Y78623D01*
X42899Y76470D01*
X45052Y74818D01*
X47559Y73779D01*
X50250Y73425D01*
X52940Y73779D01*
X55447Y74818D01*
X57600Y76470D01*
X59252Y78623D01*
X60291Y81130D01*
X60645Y83820D01*
X60291Y86510D01*
X59252Y89017D01*
X57600Y91170D01*
X55447Y92822D01*
X52940Y93861D01*
X50250Y94215D01*
D02*
G37*
G36*
X382270Y88585D02*
X379580Y88231D01*
X377073Y87192D01*
X374920Y85540D01*
X373268Y83387D01*
X372229Y80880D01*
X371875Y78190D01*
X372229Y75500D01*
X373268Y72993D01*
X374920Y70840D01*
X377073Y69188D01*
X379580Y68149D01*
X382270Y67795D01*
X384960Y68149D01*
X387467Y69188D01*
X389620Y70840D01*
X391272Y72993D01*
X392311Y75500D01*
X392665Y78190D01*
X392311Y80880D01*
X391272Y83387D01*
X389620Y85540D01*
X387467Y87192D01*
X384960Y88231D01*
X382270Y88585D01*
D02*
G37*
G36*
X264795Y59814D02*
Y51435D01*
X273174D01*
X272948Y53155D01*
X272039Y55349D01*
X270593Y57233D01*
X268709Y58679D01*
X266515Y59588D01*
X264795Y59814D01*
D02*
G37*
G36*
X263525D02*
X261805Y59588D01*
X259611Y58679D01*
X257727Y57233D01*
X256281Y55349D01*
X255372Y53155D01*
X255146Y51435D01*
X263525D01*
Y59814D01*
D02*
G37*
G36*
X273174Y50165D02*
X264795D01*
Y41786D01*
X266515Y42012D01*
X268709Y42921D01*
X270593Y44367D01*
X272039Y46251D01*
X272948Y48445D01*
X273174Y50165D01*
D02*
G37*
G36*
X263525D02*
X255146D01*
X255372Y48445D01*
X256281Y46251D01*
X257727Y44367D01*
X259611Y42921D01*
X261805Y42012D01*
X263525Y41786D01*
Y50165D01*
D02*
G37*
G36*
X419575Y48394D02*
Y41275D01*
X426693D01*
X426510Y42668D01*
X425727Y44559D01*
X424482Y46182D01*
X422859Y47427D01*
X420968Y48210D01*
X419575Y48394D01*
D02*
G37*
G36*
X418305D02*
X416912Y48210D01*
X415022Y47427D01*
X413398Y46182D01*
X412153Y44559D01*
X411370Y42668D01*
X411186Y41275D01*
X418305D01*
Y48394D01*
D02*
G37*
G36*
X351666Y62106D02*
X329054D01*
Y39494D01*
X351666D01*
Y62106D01*
D02*
G37*
G36*
X314960Y62204D02*
X312008Y61815D01*
X309258Y60676D01*
X306896Y58864D01*
X305084Y56502D01*
X303945Y53752D01*
X303556Y50800D01*
X303945Y47849D01*
X305084Y45098D01*
X306896Y42737D01*
X309258Y40924D01*
X312008Y39785D01*
X314960Y39396D01*
X317911Y39785D01*
X320662Y40924D01*
X323023Y42737D01*
X324836Y45098D01*
X325975Y47849D01*
X326364Y50800D01*
X325975Y53752D01*
X324836Y56502D01*
X323023Y58864D01*
X320662Y60676D01*
X317911Y61815D01*
X314960Y62204D01*
D02*
G37*
G36*
X289560D02*
X286609Y61815D01*
X283858Y60676D01*
X281497Y58864D01*
X279684Y56502D01*
X278545Y53752D01*
X278156Y50800D01*
X278545Y47849D01*
X279684Y45098D01*
X281497Y42737D01*
X283858Y40924D01*
X286609Y39785D01*
X289560Y39396D01*
X292512Y39785D01*
X295262Y40924D01*
X297624Y42737D01*
X299436Y45098D01*
X300575Y47849D01*
X300964Y50800D01*
X300575Y53752D01*
X299436Y56502D01*
X297624Y58864D01*
X295262Y60676D01*
X292512Y61815D01*
X289560Y62204D01*
D02*
G37*
G36*
X238760D02*
X235809Y61815D01*
X233058Y60676D01*
X230697Y58864D01*
X228884Y56502D01*
X227745Y53752D01*
X227356Y50800D01*
X227745Y47849D01*
X228884Y45098D01*
X230697Y42737D01*
X233058Y40924D01*
X235809Y39785D01*
X238760Y39396D01*
X241712Y39785D01*
X244462Y40924D01*
X246824Y42737D01*
X248636Y45098D01*
X249775Y47849D01*
X250164Y50800D01*
X249775Y53752D01*
X248636Y56502D01*
X246824Y58864D01*
X244462Y60676D01*
X241712Y61815D01*
X238760Y62204D01*
D02*
G37*
G36*
X33655Y55272D02*
Y37465D01*
X51462D01*
X51169Y40440D01*
X50116Y43911D01*
X48406Y47110D01*
X46104Y49914D01*
X43300Y52216D01*
X40101Y53926D01*
X36630Y54979D01*
X33655Y55272D01*
D02*
G37*
G36*
X32385D02*
X29410Y54979D01*
X25939Y53926D01*
X22740Y52216D01*
X19936Y49914D01*
X17634Y47110D01*
X15924Y43911D01*
X14871Y40440D01*
X14578Y37465D01*
X32385D01*
Y55272D01*
D02*
G37*
G36*
X527685Y51462D02*
Y33655D01*
X545492D01*
X545199Y36630D01*
X544146Y40101D01*
X542436Y43300D01*
X540134Y46104D01*
X537330Y48406D01*
X534131Y50116D01*
X530660Y51169D01*
X527685Y51462D01*
D02*
G37*
G36*
X526415D02*
X523440Y51169D01*
X519969Y50116D01*
X516770Y48406D01*
X513966Y46104D01*
X511664Y43300D01*
X509954Y40101D01*
X508901Y36630D01*
X508608Y33655D01*
X526415D01*
Y51462D01*
D02*
G37*
G36*
X426693Y40005D02*
X419575D01*
Y32887D01*
X420968Y33070D01*
X422859Y33853D01*
X424482Y35098D01*
X425727Y36721D01*
X426510Y38612D01*
X426693Y40005D01*
D02*
G37*
G36*
X418305D02*
X411186D01*
X411370Y38612D01*
X412153Y36721D01*
X413398Y35098D01*
X415022Y33853D01*
X416912Y33070D01*
X418305Y32887D01*
Y40005D01*
D02*
G37*
G36*
X408996Y50696D02*
X388884D01*
Y30584D01*
X408996D01*
Y50696D01*
D02*
G37*
G36*
X51462Y36195D02*
X33655D01*
Y18388D01*
X36630Y18681D01*
X40101Y19734D01*
X43300Y21444D01*
X46104Y23746D01*
X48406Y26550D01*
X50116Y29749D01*
X51169Y33220D01*
X51462Y36195D01*
D02*
G37*
G36*
X32385D02*
X14578D01*
X14871Y33220D01*
X15924Y29749D01*
X17634Y26550D01*
X19936Y23746D01*
X22740Y21444D01*
X25939Y19734D01*
X29410Y18681D01*
X32385Y18388D01*
Y36195D01*
D02*
G37*
G36*
X545492Y32385D02*
X527685D01*
Y14578D01*
X530660Y14871D01*
X534131Y15924D01*
X537330Y17634D01*
X540134Y19936D01*
X542436Y22740D01*
X544146Y25939D01*
X545199Y29410D01*
X545492Y32385D01*
D02*
G37*
G36*
X526415D02*
X508608D01*
X508901Y29410D01*
X509954Y25939D01*
X511664Y22740D01*
X513966Y19936D01*
X516770Y17634D01*
X519969Y15924D01*
X523440Y14871D01*
X526415Y14578D01*
Y32385D01*
D02*
G37*
%LPD*%
D35*
X107950Y441960D02*
X200025D01*
X92710Y290830D02*
Y426720D01*
X107950Y441960D01*
X200025D02*
X215265Y457200D01*
X245110D01*
X502950Y100330D02*
X506730Y96550D01*
X438150Y100330D02*
X502950D01*
X339090Y124460D02*
X414020D01*
X438150Y100330D01*
X298450Y449580D02*
X321310Y472440D01*
X298450Y365760D02*
Y449580D01*
X260350Y327660D02*
X298450Y365760D01*
X323850Y495300D02*
X346710Y472440D01*
X283210Y495300D02*
X323850D01*
X245110Y457200D02*
X283210Y495300D01*
X102870Y280670D02*
X219710D01*
X92710Y290830D02*
X102870Y280670D01*
X241300Y302260D02*
X260350D01*
X219710Y280670D02*
X241300Y302260D01*
X135170Y304800D02*
X208830Y378460D01*
X260350D01*
X200660Y153670D02*
X231140D01*
X260350Y124460D01*
X134620Y187960D02*
X166370D01*
X200660Y153670D01*
D36*
X72030Y392950D02*
D03*
Y457950D02*
D03*
X27030D02*
D03*
X494060Y321310D02*
D03*
X506730Y119350D02*
D03*
D37*
X27030Y392950D02*
D03*
X506730Y96550D02*
D03*
D38*
X130810Y413860D02*
D03*
X203200Y414970D02*
D03*
D39*
X130810Y393860D02*
D03*
X203200Y394970D02*
D03*
X214430Y125730D02*
D03*
X418940Y40640D02*
D03*
X215700Y318770D02*
D03*
X410210Y416560D02*
D03*
X388940Y355600D02*
D03*
D40*
X516860Y321310D02*
D03*
D41*
X391160Y227330D02*
D03*
Y252730D02*
D03*
D42*
Y278130D02*
D03*
D43*
X527050Y33020D02*
D03*
X33020Y36830D02*
D03*
X528320Y496570D02*
D03*
X33020D02*
D03*
D44*
X135170Y346710D02*
D03*
X382270Y78190D02*
D03*
X135170Y304800D02*
D03*
X50250Y83820D02*
D03*
D45*
X45170Y346710D02*
D03*
Y304800D02*
D03*
X140250Y83820D02*
D03*
D46*
X189430Y125730D02*
D03*
X398940Y40640D02*
D03*
X190700Y318770D02*
D03*
X390210Y416560D02*
D03*
X408940Y355600D02*
D03*
D47*
X382270Y168190D02*
D03*
D48*
X50800Y240030D02*
D03*
X134620Y238760D02*
D03*
D49*
X50800Y214630D02*
D03*
Y189230D02*
D03*
Y163830D02*
D03*
Y138430D02*
D03*
X238760Y50800D02*
D03*
X264160D02*
D03*
X289560D02*
D03*
X314960D02*
D03*
X134620Y213360D02*
D03*
Y187960D02*
D03*
Y162560D02*
D03*
Y137160D02*
D03*
X397510Y472440D02*
D03*
X372110D02*
D03*
X346710D02*
D03*
X321310D02*
D03*
D50*
X340360Y50800D02*
D03*
X295910Y472440D02*
D03*
D51*
X339090Y429260D02*
D03*
Y403860D02*
D03*
Y378460D02*
D03*
Y353060D02*
D03*
Y327660D02*
D03*
Y302260D02*
D03*
Y276860D02*
D03*
Y251460D02*
D03*
Y226060D02*
D03*
Y200660D02*
D03*
Y175260D02*
D03*
Y149860D02*
D03*
Y124460D02*
D03*
Y99060D02*
D03*
X260350D02*
D03*
Y124460D02*
D03*
Y149860D02*
D03*
Y175260D02*
D03*
Y200660D02*
D03*
Y226060D02*
D03*
Y251460D02*
D03*
Y276860D02*
D03*
Y302260D02*
D03*
Y327660D02*
D03*
Y353060D02*
D03*
Y378460D02*
D03*
Y403860D02*
D03*
D52*
Y429260D02*
D03*
D53*
X205740Y198120D02*
D03*
X479690Y209710D02*
D03*
D54*
X205740Y247120D02*
D03*
X479690Y229710D02*
D03*
M02*
