G04*
G04 #@! TF.GenerationSoftware,Altium Limited,Altium Designer,23.2.1 (34)*
G04*
G04 Layer_Color=65535*
%FSLAX44Y44*%
%MOMM*%
G71*
G04*
G04 #@! TF.SameCoordinates,3E65621F-DDE3-4266-9229-7E2A0E2672EE*
G04*
G04*
G04 #@! TF.FilePolarity,Positive*
G04*
G01*
G75*
%ADD10C,0.2500*%
%ADD11C,0.2000*%
%ADD12C,0.3556*%
%ADD13C,0.1500*%
%ADD14C,0.2540*%
D10*
X28280Y379950D02*
G03*
X28280Y379950I-1250J0D01*
G01*
X381410Y298230D02*
G03*
X381410Y298230I-1250J0D01*
G01*
X33550Y240030D02*
G03*
X33550Y240030I-1250J0D01*
G01*
X341610Y69300D02*
G03*
X341610Y69300I-1250J0D01*
G01*
X117370Y238760D02*
G03*
X117370Y238760I-1250J0D01*
G01*
X297160Y453940D02*
G03*
X297160Y453940I-1250J0D01*
G01*
X463160Y209550D02*
G03*
X463160Y209550I-1250J0D01*
G01*
D11*
X155810Y403860D02*
G03*
X155810Y403860I-25000J0D01*
G01*
X490260Y309910D02*
G03*
X520580Y309805I15200J11400D01*
G01*
X520580Y332816D02*
G03*
X490260Y332710I-15120J-11506D01*
G01*
X495330Y123150D02*
G03*
X495225Y92830I11400J-15200D01*
G01*
X518236Y92830D02*
G03*
X518130Y123150I-11506J15120D01*
G01*
X228200Y404970D02*
G03*
X228200Y404970I-25000J0D01*
G01*
X233430Y125730D02*
G03*
X233430Y125730I-31500J0D01*
G01*
X433940Y40640D02*
G03*
X433940Y40640I-25000J0D01*
G01*
X234700Y318770D02*
G03*
X234700Y318770I-31500J0D01*
G01*
X425210Y416560D02*
G03*
X425210Y416560I-25000J0D01*
G01*
X423940Y355600D02*
G03*
X423940Y355600I-25000J0D01*
G01*
X249720Y429260D02*
G03*
X249720Y429260I-1000J0D01*
G01*
X182490Y190620D02*
G03*
X228990Y190620I23250J0D01*
G01*
Y254620D02*
G03*
X182490Y254620I-23250J0D01*
G01*
X490220Y310460D02*
X490260Y309910D01*
X490220Y332160D02*
X490260Y332710D01*
X528360Y321310D02*
X538360D01*
X533360Y316310D02*
Y326310D01*
X495330Y123150D02*
X495880Y123190D01*
X517580D02*
X518130Y123150D01*
X506730Y75050D02*
Y85050D01*
X501730Y80050D02*
X511730D01*
D12*
X38530Y395450D02*
X60800D01*
X79530Y401670D02*
Y449230D01*
X38260Y455450D02*
X60800D01*
X19530Y404450D02*
Y449230D01*
X414660Y200730D02*
Y304730D01*
X373660D02*
X419660D01*
X373660Y200730D02*
Y304730D01*
Y200730D02*
X419660D01*
Y304730D01*
X121670Y353450D02*
Y358710D01*
X58670Y334710D02*
Y339970D01*
X121670Y334710D02*
Y339970D01*
X58670Y353450D02*
Y358710D01*
X121670D01*
X58670Y334710D02*
X121670D01*
X370270Y91690D02*
Y154690D01*
X394270Y91690D02*
Y154690D01*
X389010D02*
X394270D01*
X370270Y91690D02*
X375530D01*
X370270Y154690D02*
X375530D01*
X389010Y91690D02*
X394270D01*
X58670Y292800D02*
X121670D01*
X58670Y316800D02*
X121670D01*
X58670Y311540D02*
Y316800D01*
X121670Y292800D02*
Y298060D01*
X58670Y292800D02*
Y298060D01*
X121670Y311540D02*
Y316800D01*
X62800Y125730D02*
Y252730D01*
X38800Y125730D02*
X62800D01*
X38800D02*
Y252730D01*
X62800D01*
X353060Y38800D02*
Y62800D01*
X226060D02*
X353060D01*
X226060Y38800D02*
Y62800D01*
Y38800D02*
X353060D01*
X63750Y71820D02*
Y77080D01*
X126750Y90560D02*
Y95820D01*
X63750Y90560D02*
Y95820D01*
X126750Y71820D02*
Y77080D01*
X63750Y71820D02*
X126750D01*
X63750Y95820D02*
X126750D01*
X146620Y124460D02*
Y251460D01*
X122620Y124460D02*
X146620D01*
X122620D02*
Y251460D01*
X146620D01*
X283210Y460440D02*
Y484440D01*
Y460440D02*
X410210D01*
Y484440D01*
X283210D02*
X410210D01*
X263525Y89610D02*
X335915D01*
X263525Y438710D02*
X335915D01*
X182490Y190620D02*
Y254620D01*
X228990Y190620D02*
Y254620D01*
X466190Y239210D02*
Y249210D01*
X466187Y249212D02*
X542187D01*
X542189Y190209D02*
Y249210D01*
X466190Y190209D02*
Y200210D01*
Y190209D02*
X542189D01*
D13*
X130938Y442940D02*
Y432943D01*
X135936Y437942D02*
X125939D01*
X203328Y444050D02*
Y434053D01*
X208326Y439052D02*
X198329D01*
X154933Y125727D02*
X164930D01*
X159931Y130725D02*
Y120728D01*
X369860Y40768D02*
X379857D01*
X374858Y45766D02*
Y35769D01*
X156203Y318767D02*
X166200D01*
X161201Y323765D02*
Y313768D01*
X361130Y416688D02*
X371127D01*
X366128Y421686D02*
Y411689D01*
X438020Y355472D02*
X428023D01*
X433022Y350474D02*
Y360471D01*
D14*
X462282Y299734D02*
X477518D01*
Y309891D01*
X462282Y325126D02*
Y314969D01*
X477518D01*
Y325126D01*
X469900Y314969D02*
Y320047D01*
X462282Y330204D02*
X477518D01*
Y337822D01*
X474978Y340361D01*
X464822D01*
X462282Y337822D01*
Y330204D01*
X469900Y345439D02*
Y355596D01*
X462282Y360674D02*
X477518D01*
Y368292D01*
X474978Y370831D01*
X472439D01*
X469900Y368292D01*
Y360674D01*
Y368292D01*
X467361Y370831D01*
X464822D01*
X462282Y368292D01*
Y360674D01*
Y375909D02*
Y386066D01*
Y380988D01*
X477518D01*
X530863Y76214D02*
X546097D01*
Y83831D01*
X543558Y86370D01*
X541019D01*
X538480Y83831D01*
Y76214D01*
Y83831D01*
X535941Y86370D01*
X533402D01*
X530863Y83831D01*
Y76214D01*
X535941Y91449D02*
X543558D01*
X546097Y93988D01*
Y101605D01*
X535941D01*
Y106684D02*
Y116840D01*
X546097Y106684D01*
Y116840D01*
X535941Y121919D02*
Y132076D01*
X546097Y121919D01*
Y132076D01*
Y144771D02*
Y139693D01*
X543558Y137154D01*
X538480D01*
X535941Y139693D01*
Y144771D01*
X538480Y147311D01*
X541019D01*
Y137154D01*
X535941Y152389D02*
X546097D01*
X541019D01*
X538480Y154928D01*
X535941Y157467D01*
Y160007D01*
X453393Y45718D02*
X450854Y48257D01*
X445775D01*
X443236Y45718D01*
Y35562D01*
X445775Y33022D01*
X450854D01*
X453393Y35562D01*
X458471Y33022D02*
X463550D01*
X461010D01*
Y48257D01*
X458471Y45718D01*
X471167D02*
X473706Y48257D01*
X478785D01*
X481324Y45718D01*
Y35562D01*
X478785Y33022D01*
X473706D01*
X471167Y35562D01*
Y45718D01*
X370078Y185420D02*
Y200655D01*
X377696D01*
X380235Y198116D01*
Y193037D01*
X377696Y190498D01*
X370078D01*
X375156D02*
X380235Y185420D01*
X395470Y200655D02*
X385313D01*
Y193037D01*
X390391Y195577D01*
X392931D01*
X395470Y193037D01*
Y187959D01*
X392931Y185420D01*
X387852D01*
X385313Y187959D01*
X224811Y27938D02*
Y12702D01*
Y20320D01*
X234968D01*
Y27938D01*
Y12702D01*
X250203Y25398D02*
X247664Y27938D01*
X242586D01*
X240046Y25398D01*
Y15242D01*
X242586Y12702D01*
X247664D01*
X250203Y15242D01*
X255282Y20320D02*
X265438D01*
X280673Y25398D02*
X278134Y27938D01*
X273056D01*
X270517Y25398D01*
Y22859D01*
X273056Y20320D01*
X278134D01*
X280673Y17781D01*
Y15242D01*
X278134Y12702D01*
X273056D01*
X270517Y15242D01*
X285752Y12702D02*
Y27938D01*
X293369D01*
X295908Y25398D01*
Y20320D01*
X293369Y17781D01*
X285752D01*
X290830D02*
X295908Y12702D01*
X300987Y25398D02*
X303526Y27938D01*
X308604D01*
X311143Y25398D01*
Y15242D01*
X308604Y12702D01*
X303526D01*
X300987Y15242D01*
Y25398D01*
X323839Y12702D02*
Y27938D01*
X316222Y20320D01*
X326379D01*
X331457D02*
X341614D01*
X346692Y25398D02*
X349231Y27938D01*
X354310D01*
X356849Y25398D01*
Y22859D01*
X354310Y20320D01*
X351770D01*
X354310D01*
X356849Y17781D01*
Y15242D01*
X354310Y12702D01*
X349231D01*
X346692Y15242D01*
X280691Y510537D02*
Y495303D01*
Y502920D01*
X290848D01*
Y510537D01*
Y495303D01*
X306083Y507998D02*
X303544Y510537D01*
X298466D01*
X295926Y507998D01*
Y497842D01*
X298466Y495303D01*
X303544D01*
X306083Y497842D01*
X311161Y502920D02*
X321318D01*
X336553Y507998D02*
X334014Y510537D01*
X328936D01*
X326397Y507998D01*
Y505459D01*
X328936Y502920D01*
X334014D01*
X336553Y500381D01*
Y497842D01*
X334014Y495303D01*
X328936D01*
X326397Y497842D01*
X341632Y495303D02*
Y510537D01*
X349249D01*
X351788Y507998D01*
Y502920D01*
X349249Y500381D01*
X341632D01*
X346710D02*
X351788Y495303D01*
X356867Y507998D02*
X359406Y510537D01*
X364484D01*
X367023Y507998D01*
Y497842D01*
X364484Y495303D01*
X359406D01*
X356867Y497842D01*
Y507998D01*
X379719Y495303D02*
Y510537D01*
X372102Y502920D01*
X382258D01*
X387337D02*
X397494D01*
X412729Y495303D02*
X402572D01*
X412729Y505459D01*
Y507998D01*
X410190Y510537D01*
X405111D01*
X402572Y507998D01*
X162052Y278125D02*
Y275586D01*
X167130Y270508D01*
X172209Y275586D01*
Y278125D01*
X167130Y270508D02*
Y262890D01*
X25404Y269242D02*
Y284478D01*
X33022D01*
X35561Y281938D01*
Y276860D01*
X33022Y274321D01*
X25404D01*
X30482D02*
X35561Y269242D01*
X48257D02*
Y284478D01*
X40639Y276860D01*
X50796D01*
X78744Y104143D02*
Y119377D01*
X86362D01*
X88901Y116838D01*
Y111760D01*
X86362Y109221D01*
X78744D01*
X83822D02*
X88901Y104143D01*
X93979Y116838D02*
X96518Y119377D01*
X101597D01*
X104136Y116838D01*
Y114299D01*
X101597Y111760D01*
X99058D01*
X101597D01*
X104136Y109221D01*
Y106682D01*
X101597Y104143D01*
X96518D01*
X93979Y106682D01*
X21593Y363223D02*
Y378457D01*
X29211D01*
X31750Y375918D01*
Y370840D01*
X29211Y368301D01*
X21593D01*
X26672D02*
X31750Y363223D01*
X36828D02*
X41907D01*
X39368D01*
Y378457D01*
X36828Y375918D01*
X50826Y469902D02*
Y485137D01*
X58443D01*
X60982Y482598D01*
Y477520D01*
X58443Y474981D01*
X50826D01*
X66061Y480059D02*
Y472442D01*
X68600Y469902D01*
X76217D01*
Y480059D01*
X81296Y469902D02*
X88913D01*
X91452Y472442D01*
X88913Y474981D01*
X83835D01*
X81296Y477520D01*
X83835Y480059D01*
X91452D01*
X96531Y485137D02*
Y469902D01*
Y477520D01*
X99070Y480059D01*
X104148D01*
X106687Y477520D01*
Y469902D01*
X127001Y485137D02*
Y469902D01*
X134618D01*
X137158Y472442D01*
Y474981D01*
Y477520D01*
X134618Y480059D01*
X127001D01*
X142236D02*
Y472442D01*
X144775Y469902D01*
X152393D01*
Y480059D01*
X160010Y482598D02*
Y480059D01*
X157471D01*
X162549D01*
X160010D01*
Y472442D01*
X162549Y469902D01*
X172706Y482598D02*
Y480059D01*
X170167D01*
X175245D01*
X172706D01*
Y472442D01*
X175245Y469902D01*
X185402D02*
X190480D01*
X193020Y472442D01*
Y477520D01*
X190480Y480059D01*
X185402D01*
X182863Y477520D01*
Y472442D01*
X185402Y469902D01*
X198098D02*
Y480059D01*
X205715D01*
X208255Y477520D01*
Y469902D01*
X462026Y259588D02*
Y274823D01*
X469644D01*
X472183Y272284D01*
Y267206D01*
X469644Y264666D01*
X462026D01*
X484879Y274823D02*
X479800D01*
X477261Y272284D01*
Y262127D01*
X479800Y259588D01*
X484879D01*
X487418Y262127D01*
Y272284D01*
X484879Y274823D01*
X492496D02*
Y259588D01*
X497575Y264666D01*
X502653Y259588D01*
Y274823D01*
X517888D02*
X507731D01*
Y259588D01*
X517888D01*
X507731Y267206D02*
X512810D01*
X522966Y259588D02*
Y274823D01*
X530584D01*
X533123Y272284D01*
Y267206D01*
X530584Y264666D01*
X522966D01*
X528045D02*
X533123Y259588D01*
X306068Y182914D02*
X290832D01*
X295911Y187992D01*
X290832Y193071D01*
X306068D01*
Y198149D02*
Y203228D01*
Y200688D01*
X295911D01*
Y198149D01*
Y221002D02*
Y213384D01*
X298450Y210845D01*
X303528D01*
X306068Y213384D01*
Y221002D01*
X295911Y226080D02*
X306068D01*
X300989D01*
X298450Y228619D01*
X295911Y231159D01*
Y233698D01*
X306068Y243854D02*
Y248933D01*
X303528Y251472D01*
X298450D01*
X295911Y248933D01*
Y243854D01*
X298450Y241315D01*
X303528D01*
X306068Y243854D01*
X295911Y266707D02*
Y259089D01*
X298450Y256550D01*
X303528D01*
X306068Y259089D01*
Y266707D01*
Y274324D02*
Y279403D01*
X303528Y281942D01*
X298450D01*
X295911Y279403D01*
Y274324D01*
X298450Y271785D01*
X303528D01*
X306068Y274324D01*
Y287020D02*
X295911D01*
Y294638D01*
X298450Y297177D01*
X306068D01*
X293372Y304795D02*
X295911D01*
Y302255D01*
Y307334D01*
Y304795D01*
X303528D01*
X306068Y307334D01*
X295911Y314951D02*
X306068D01*
X300989D01*
X298450Y317491D01*
X295911Y320030D01*
Y322569D01*
X306068Y332726D02*
Y337804D01*
X303528Y340343D01*
X298450D01*
X295911Y337804D01*
Y332726D01*
X298450Y330186D01*
X303528D01*
X306068Y332726D01*
Y345421D02*
Y350500D01*
Y347961D01*
X290832D01*
Y345421D01*
X306068Y358117D02*
Y363196D01*
Y360657D01*
X290832D01*
Y358117D01*
X306068Y378431D02*
Y373353D01*
X303528Y370813D01*
X298450D01*
X295911Y373353D01*
Y378431D01*
X298450Y380970D01*
X300989D01*
Y370813D01*
X295911Y386048D02*
X306068D01*
X300989D01*
X298450Y388587D01*
X295911Y391127D01*
Y393666D01*
X95252Y133371D02*
X110487D01*
X102870D01*
Y143527D01*
X95252D01*
X110487D01*
X97792Y158762D02*
X95252Y156223D01*
Y151145D01*
X97792Y148606D01*
X107948D01*
X110487Y151145D01*
Y156223D01*
X107948Y158762D01*
X102870Y163841D02*
Y173997D01*
X97792Y189233D02*
X95252Y186693D01*
Y181615D01*
X97792Y179076D01*
X100331D01*
X102870Y181615D01*
Y186693D01*
X105409Y189233D01*
X107948D01*
X110487Y186693D01*
Y181615D01*
X107948Y179076D01*
X110487Y194311D02*
X95252D01*
Y201928D01*
X97792Y204468D01*
X102870D01*
X105409Y201928D01*
Y194311D01*
Y199389D02*
X110487Y204468D01*
X97792Y209546D02*
X95252Y212085D01*
Y217163D01*
X97792Y219703D01*
X107948D01*
X110487Y217163D01*
Y212085D01*
X107948Y209546D01*
X97792D01*
X110487Y232398D02*
X95252D01*
X102870Y224781D01*
Y234938D01*
Y240016D02*
Y250173D01*
X110487Y255251D02*
Y260329D01*
Y257790D01*
X95252D01*
X97792Y255251D01*
X71122Y157492D02*
X86357D01*
X78740D01*
Y167648D01*
X71122D01*
X86357D01*
X73662Y182883D02*
X71122Y180344D01*
Y175266D01*
X73662Y172727D01*
X83818D01*
X86357Y175266D01*
Y180344D01*
X83818Y182883D01*
X78740Y187962D02*
Y198118D01*
X73662Y203197D02*
X71122Y205736D01*
Y210814D01*
X73662Y213353D01*
X83818D01*
X86357Y210814D01*
Y205736D01*
X83818Y203197D01*
X73662D01*
X71122Y228589D02*
Y218432D01*
X78740D01*
X76201Y223510D01*
Y226049D01*
X78740Y228589D01*
X83818D01*
X86357Y226049D01*
Y220971D01*
X83818Y218432D01*
X224791Y448308D02*
X222252Y450848D01*
X217173D01*
X214634Y448308D01*
Y438152D01*
X217173Y435612D01*
X222252D01*
X224791Y438152D01*
X229869Y448308D02*
X232408Y450848D01*
X237487D01*
X240026Y448308D01*
Y445769D01*
X237487Y443230D01*
X240026Y440691D01*
Y438152D01*
X237487Y435612D01*
X232408D01*
X229869Y438152D01*
Y440691D01*
X232408Y443230D01*
X229869Y445769D01*
Y448308D01*
X232408Y443230D02*
X237487D01*
X443391Y420368D02*
X440852Y422907D01*
X435773D01*
X433234Y420368D01*
Y410212D01*
X435773Y407673D01*
X440852D01*
X443391Y410212D01*
X458626Y422907D02*
X448469D01*
Y415290D01*
X453548Y417829D01*
X456087D01*
X458626Y415290D01*
Y410212D01*
X456087Y407673D01*
X451008D01*
X448469Y410212D01*
X95251Y440688D02*
X92712Y443228D01*
X87633D01*
X85094Y440688D01*
Y430532D01*
X87633Y427993D01*
X92712D01*
X95251Y430532D01*
X107947Y427993D02*
Y443228D01*
X100329Y435610D01*
X110486D01*
X165101Y175258D02*
X162562Y177798D01*
X157483D01*
X154944Y175258D01*
Y165102D01*
X157483Y162563D01*
X162562D01*
X165101Y165102D01*
X170179Y175258D02*
X172718Y177798D01*
X177797D01*
X180336Y175258D01*
Y172719D01*
X177797Y170180D01*
X175257D01*
X177797D01*
X180336Y167641D01*
Y165102D01*
X177797Y162563D01*
X172718D01*
X170179Y165102D01*
X166371Y367028D02*
X163832Y369567D01*
X158753D01*
X156214Y367028D01*
Y356872D01*
X158753Y354333D01*
X163832D01*
X166371Y356872D01*
X181606Y354333D02*
X171449D01*
X181606Y364489D01*
Y367028D01*
X179067Y369567D01*
X173988D01*
X171449Y367028D01*
X441960Y380998D02*
X439421Y383537D01*
X434342D01*
X431803Y380998D01*
Y370842D01*
X434342Y368302D01*
X439421D01*
X441960Y370842D01*
X447038Y368302D02*
X452117D01*
X449578D01*
Y383537D01*
X447038Y380998D01*
X427993Y177824D02*
Y167668D01*
X435611D01*
X433072Y172746D01*
Y175285D01*
X435611Y177824D01*
X440689D01*
X443228Y175285D01*
Y170207D01*
X440689Y167668D01*
X427993Y182903D02*
X438150D01*
X443228Y187981D01*
X438150Y193059D01*
X427993D01*
X433072Y213373D02*
X443228D01*
X438150D01*
X435611Y215912D01*
X433072Y218451D01*
Y220990D01*
X443228Y236225D02*
Y231147D01*
X440689Y228608D01*
X435611D01*
X433072Y231147D01*
Y236225D01*
X435611Y238764D01*
X438150D01*
Y228608D01*
X448307Y248921D02*
Y251460D01*
X445768Y254000D01*
X433072D01*
Y246382D01*
X435611Y243843D01*
X440689D01*
X443228Y246382D01*
Y254000D01*
X433072Y259078D02*
X440689D01*
X443228Y261617D01*
Y269235D01*
X433072D01*
X443228Y274313D02*
Y279391D01*
Y276852D01*
X427993D01*
Y274313D01*
X433072Y289548D02*
Y294627D01*
X435611Y297166D01*
X443228D01*
Y289548D01*
X440689Y287009D01*
X438150Y289548D01*
Y297166D01*
X430532Y304783D02*
X433072D01*
Y302244D01*
Y307322D01*
Y304783D01*
X440689D01*
X443228Y307322D01*
Y317479D02*
Y322557D01*
X440689Y325097D01*
X435611D01*
X433072Y322557D01*
Y317479D01*
X435611Y314940D01*
X440689D01*
X443228Y317479D01*
X433072Y330175D02*
X443228D01*
X438150D01*
X435611Y332714D01*
X433072Y335253D01*
Y337793D01*
M02*
