G04*
G04 #@! TF.GenerationSoftware,Altium Limited,Altium Designer,23.2.1 (34)*
G04*
G04 Layer_Color=8388736*
%FSLAX44Y44*%
%MOMM*%
G71*
G04*
G04 #@! TF.SameCoordinates,3E65621F-DDE3-4266-9229-7E2A0E2672EE*
G04*
G04*
G04 #@! TF.FilePolarity,Negative*
G04*
G01*
G75*
%ADD15C,1.7032*%
%ADD16C,1.6500*%
%ADD17R,1.6500X1.6500*%
%ADD18R,1.4500X1.4500*%
%ADD19C,1.4500*%
%ADD20R,1.6500X1.6500*%
%ADD21C,1.8500*%
%ADD22R,1.8500X1.8500*%
%ADD23C,3.5790*%
%ADD24C,1.5000*%
%ADD25R,1.5000X1.5000*%
%ADD26R,1.4500X1.4500*%
%ADD27R,1.5000X1.5000*%
%ADD28R,1.7000X1.7000*%
%ADD29C,1.7000*%
%ADD30R,1.7000X1.7000*%
%ADD31C,1.4000*%
%ADD32R,1.4000X1.4000*%
%ADD33R,1.3500X1.3500*%
%ADD34C,1.3500*%
D15*
X72030Y392950D02*
D03*
D16*
Y457950D02*
D03*
X27030D02*
D03*
X494060Y321310D02*
D03*
X506730Y119350D02*
D03*
D17*
X27030Y392950D02*
D03*
X506730Y96550D02*
D03*
D18*
X130810Y413860D02*
D03*
X203200Y414970D02*
D03*
D19*
X130810Y393860D02*
D03*
X203200Y394970D02*
D03*
X214430Y125730D02*
D03*
X418940Y40640D02*
D03*
X215700Y318770D02*
D03*
X410210Y416560D02*
D03*
X388940Y355600D02*
D03*
D20*
X516860Y321310D02*
D03*
D21*
X391160Y227330D02*
D03*
Y252730D02*
D03*
D22*
Y278130D02*
D03*
D23*
X527050Y33020D02*
D03*
X33020Y36830D02*
D03*
X528320Y496570D02*
D03*
X33020D02*
D03*
D24*
X135170Y346710D02*
D03*
X382270Y78190D02*
D03*
X135170Y304800D02*
D03*
X50250Y83820D02*
D03*
D25*
X45170Y346710D02*
D03*
Y304800D02*
D03*
X140250Y83820D02*
D03*
D26*
X189430Y125730D02*
D03*
X398940Y40640D02*
D03*
X190700Y318770D02*
D03*
X390210Y416560D02*
D03*
X408940Y355600D02*
D03*
D27*
X382270Y168190D02*
D03*
D28*
X50800Y240030D02*
D03*
X134620Y238760D02*
D03*
D29*
X50800Y214630D02*
D03*
Y189230D02*
D03*
Y163830D02*
D03*
Y138430D02*
D03*
X238760Y50800D02*
D03*
X264160D02*
D03*
X289560D02*
D03*
X314960D02*
D03*
X134620Y213360D02*
D03*
Y187960D02*
D03*
Y162560D02*
D03*
Y137160D02*
D03*
X397510Y472440D02*
D03*
X372110D02*
D03*
X346710D02*
D03*
X321310D02*
D03*
D30*
X340360Y50800D02*
D03*
X295910Y472440D02*
D03*
D31*
X339090Y429260D02*
D03*
Y403860D02*
D03*
Y378460D02*
D03*
Y353060D02*
D03*
Y327660D02*
D03*
Y302260D02*
D03*
Y276860D02*
D03*
Y251460D02*
D03*
Y226060D02*
D03*
Y200660D02*
D03*
Y175260D02*
D03*
Y149860D02*
D03*
Y124460D02*
D03*
Y99060D02*
D03*
X260350D02*
D03*
Y124460D02*
D03*
Y149860D02*
D03*
Y175260D02*
D03*
Y200660D02*
D03*
Y226060D02*
D03*
Y251460D02*
D03*
Y276860D02*
D03*
Y302260D02*
D03*
Y327660D02*
D03*
Y353060D02*
D03*
Y378460D02*
D03*
Y403860D02*
D03*
D32*
Y429260D02*
D03*
D33*
X205740Y198120D02*
D03*
X479690Y209710D02*
D03*
D34*
X205740Y247120D02*
D03*
X479690Y229710D02*
D03*
M02*
